<svg version="1.1" id="Layer_1" xmlns="http://www.w3.org/2000/svg" xmlns:xlink="http://www.w3.org/1999/xlink" x="0px" y="0px"
	 width="100%" viewBox="0 0 2000 2000" enable-background="new 0 0 2000 2000" xml:space="preserve">
<path fill="#000000" opacity="1.000000" stroke="none" 
	d="
M2001.000000,2.000000 
	C2001.000000,667.704285 2001.000000,1333.408569 2000.556396,1999.556396 
	C1333.741821,2000.000000 667.370911,2000.000000 1.000000,2000.000000 
	C1.000000,1334.295776 1.000000,668.591492 1.443604,2.443559 
	C668.258118,1.999941 1334.629028,1.999970 2001.000000,2.000000 
M885.356750,1151.125977 
	C903.870728,1165.767212 925.510681,1172.141235 948.494324,1174.778076 
	C985.108643,1178.978638 1009.905945,1164.879395 1025.192505,1131.678467 
	C1025.984985,1129.957275 1028.748901,1128.422729 1030.796509,1128.106934 
	C1070.942871,1121.913452 1109.070557,1109.919678 1144.192749,1089.153076 
	C1163.223511,1077.900757 1181.186279,1065.308838 1194.391113,1047.137085 
	C1212.680176,1021.968750 1211.309326,995.131042 1190.651611,971.983704 
	C1175.129639,954.591003 1155.720459,943.022949 1133.426758,937.267639 
	C1112.375977,931.833130 1090.813599,928.392212 1069.503540,923.943726 
	C1060.316406,922.025879 1051.198242,919.778625 1041.673218,917.594910 
	C1059.773682,877.572876 1077.585205,838.610779 1094.904419,799.430969 
	C1097.440063,793.694946 1100.806030,791.823486 1106.557739,790.898254 
	C1147.338257,784.338379 1188.214600,785.346802 1229.162109,788.587952 
	C1240.715576,789.502319 1252.297729,790.053589 1264.620850,790.818176 
	C1259.004395,779.398865 1258.537720,768.337463 1264.277344,756.875122 
	C1254.286133,757.803284 1245.023315,758.783752 1235.740234,759.500671 
	C1217.666626,760.896484 1199.714111,763.372437 1181.432251,762.544922 
	C1166.834595,761.884094 1152.135620,763.070251 1137.499268,763.794434 
	C1128.605713,764.234375 1119.745972,765.354248 1110.744629,766.180298 
	C1113.357056,756.962036 1117.536255,751.299622 1124.625854,745.708740 
	C1127.393921,743.525940 1130.056763,740.680969 1131.598755,737.560120 
	C1139.983765,720.589478 1147.924072,703.399658 1156.214355,686.381165 
	C1157.950439,682.817444 1157.014648,680.665649 1153.868408,679.073425 
	C1142.800659,673.472107 1131.696777,667.942139 1120.160889,662.161804 
	C1110.060913,681.579041 1099.372070,699.753601 1093.023071,719.989014 
	C1092.452271,721.808105 1092.371094,723.950378 1092.673950,725.844910 
	C1094.055176,734.487854 1093.029541,742.753540 1089.333374,750.680542 
	C1086.525513,756.702454 1083.892456,762.821899 1080.732056,768.654358 
	C1079.716919,770.528076 1077.487549,772.253235 1075.437378,772.969116 
	C1066.194214,776.196777 1056.626709,778.553833 1047.522339,782.110657 
	C1022.261658,791.979553 999.335999,805.506653 981.783936,826.763000 
	C973.341003,836.987671 967.703125,848.518433 966.932495,862.012817 
	C965.785217,882.102295 974.406616,898.143738 988.183960,911.791748 
	C993.458313,917.016541 999.466553,921.500427 1005.380554,926.526123 
	C1003.960266,929.504089 1002.483032,932.601501 1000.818542,936.091492 
	C984.957275,930.646362 969.258606,927.896179 953.649292,935.812439 
	C937.300293,944.103943 931.129944,958.103333 931.106140,975.821045 
	C905.113892,912.152344 879.121704,848.483643 853.058167,784.640381 
	C814.359802,798.212646 776.338623,811.547363 737.838989,825.049927 
	C778.194092,924.155334 818.357910,1022.790833 858.768250,1122.031860 
	C830.073486,1118.190430 801.272949,1114.334961 772.472351,1110.479370 
	C801.492126,1119.420532 831.176208,1124.755127 861.080811,1129.040771 
	C863.203064,1129.344849 865.425354,1130.940186 867.029663,1132.516602 
	C873.072388,1138.454346 878.878601,1144.632690 885.356750,1151.125977 
M865.084595,1312.362671 
	C863.295044,1309.676392 861.505432,1306.990112 859.617310,1304.155884 
	C860.685364,1303.588989 861.256042,1303.276611 861.834778,1302.980225 
	C873.782043,1296.859375 878.656311,1287.270142 876.932190,1273.274170 
	C875.557678,1262.116333 867.825012,1252.876831 855.317139,1251.775635 
	C839.705139,1250.401001 823.880127,1251.445557 808.123108,1251.445557 
	C808.123108,1278.569946 808.123108,1305.980835 808.123108,1333.606812 
	C814.109009,1333.606812 819.848511,1333.606812 826.152222,1333.606812 
	C826.152222,1324.694946 826.152222,1315.980469 826.152222,1307.065552 
	C829.695068,1307.065552 832.705261,1307.330078 835.648132,1306.998169 
	C839.264771,1306.589966 841.326050,1307.965820 843.215515,1311.035522 
	C847.394775,1317.824951 851.966125,1324.377930 856.522644,1330.926270 
	C857.363098,1332.134033 858.851807,1333.632080 860.100830,1333.688965 
	C866.319031,1333.972046 872.557190,1333.818359 879.734497,1333.818359 
	C874.610535,1326.306885 870.055481,1319.629395 865.084595,1312.362671 
M1374.499390,1266.900024 
	C1380.619263,1266.900024 1386.739258,1266.900024 1392.884521,1266.900024 
	C1392.884521,1261.214844 1392.884521,1255.960083 1392.884521,1250.935791 
	C1372.004395,1250.935791 1351.439087,1250.935791 1331.005615,1250.935791 
	C1331.005615,1278.750366 1331.005615,1306.179688 1331.005615,1333.530029 
	C1352.073975,1333.530029 1372.833740,1333.530029 1393.736328,1333.530029 
	C1393.736328,1328.129761 1393.736328,1323.029541 1393.736328,1317.478027 
	C1378.797363,1317.478027 1364.045898,1317.478027 1349.049805,1317.478027 
	C1349.049805,1311.472412 1349.049805,1305.917603 1349.049805,1299.806519 
	C1362.136353,1299.806519 1375.017822,1299.806519 1387.669189,1299.806519 
	C1387.669189,1294.168091 1387.669189,1289.088135 1387.669189,1283.604980 
	C1374.630371,1283.604980 1361.885864,1283.604980 1348.978760,1283.604980 
	C1348.978760,1277.915405 1348.978760,1272.645386 1348.978760,1266.900024 
	C1357.267822,1266.900024 1365.383789,1266.900024 1374.499390,1266.900024 
M1126.644287,1291.483521 
	C1126.644287,1277.922241 1126.644287,1264.360962 1126.644287,1250.812500 
	C1120.069702,1250.812500 1114.296509,1250.812500 1108.989624,1250.812500 
	C1108.989624,1269.852661 1108.274170,1288.656006 1109.228027,1307.374023 
	C1109.924927,1321.050537 1119.987671,1331.191895 1133.291992,1333.795410 
	C1138.456543,1334.806030 1143.909058,1335.152466 1149.157471,1334.779053 
	C1166.110229,1333.572998 1178.603271,1323.287231 1179.678833,1307.313232 
	C1180.936157,1288.638794 1179.972656,1269.815063 1179.972656,1250.856201 
	C1174.561279,1250.856201 1168.663086,1250.856201 1162.405273,1250.856201 
	C1162.405273,1255.966431 1162.433228,1260.768188 1162.400024,1265.569458 
	C1162.314941,1277.888428 1162.554077,1290.223267 1161.989380,1302.520874 
	C1161.543823,1312.219604 1154.953247,1317.876953 1145.289673,1318.059570 
	C1134.901978,1318.255859 1128.169678,1312.774536 1127.041138,1302.948364 
	C1126.643799,1299.487671 1126.761597,1295.967773 1126.644287,1291.483521 
M751.471375,1315.044556 
	C754.134399,1315.044556 756.825256,1315.286377 759.453308,1314.983032 
	C762.708984,1314.607178 764.065430,1316.014038 765.124695,1318.940918 
	C766.924500,1323.914185 767.985962,1330.690918 771.683105,1333.022949 
	C775.633484,1335.514526 782.276001,1333.743652 787.743530,1333.816040 
	C788.367310,1333.824219 788.992554,1333.720459 790.171143,1333.622559 
	C778.210632,1305.504272 766.377625,1277.685669 754.586060,1249.964600 
	C750.042297,1249.964600 746.033447,1250.197876 742.065979,1249.892578 
	C738.748596,1249.637207 737.195129,1250.717651 735.872437,1253.898926 
	C726.323242,1276.865601 716.511902,1299.723267 706.789551,1322.617920 
	C705.259521,1326.220703 703.759216,1329.836060 702.085327,1333.826782 
	C707.583679,1333.826782 712.411865,1333.674194 717.223694,1333.888428 
	C719.776855,1334.001953 721.087463,1333.173584 721.981934,1330.775757 
	C723.942444,1325.520386 726.176025,1320.366943 728.350098,1315.044556 
	C735.852844,1315.044556 743.167053,1315.044556 751.471375,1315.044556 
M1041.064697,1313.599731 
	C1038.740845,1312.057129 1036.417114,1310.514526 1033.836792,1308.801636 
	C1030.271606,1313.094238 1026.810913,1317.261353 1022.889099,1321.983398 
	C1026.955444,1324.570801 1030.514526,1327.364990 1034.498291,1329.272583 
	C1047.280640,1335.393188 1060.571533,1337.396484 1074.073364,1331.905762 
	C1083.840088,1327.934082 1088.564209,1320.118164 1088.922485,1309.652100 
	C1089.279297,1299.225708 1084.157715,1292.251831 1074.869751,1288.238770 
	C1070.773804,1286.468872 1066.417603,1285.294312 1062.162842,1283.900513 
	C1057.749390,1282.454712 1053.244995,1281.255127 1048.913818,1279.598999 
	C1045.608887,1278.335205 1043.552246,1275.350098 1044.805176,1272.083008 
	C1045.722534,1269.690796 1048.336182,1266.735718 1050.599487,1266.337402 
	C1054.694580,1265.617065 1059.281494,1265.945801 1063.314697,1267.077515 
	C1067.991211,1268.390015 1072.292603,1271.039429 1077.076538,1273.256592 
	C1080.088623,1268.893188 1083.146973,1264.462769 1086.278076,1259.927002 
	C1074.472778,1250.996948 1061.777466,1247.780151 1047.776245,1250.067505 
	C1035.512085,1252.070923 1027.359009,1260.940430 1026.386108,1272.948608 
	C1025.445190,1284.559326 1030.976318,1292.447998 1043.246338,1296.907471 
	C1045.428467,1297.700439 1047.671875,1298.326416 1049.892944,1299.010376 
	C1054.964600,1300.572266 1060.083984,1301.994263 1065.098877,1303.720581 
	C1068.657837,1304.945679 1071.266602,1307.294678 1070.769043,1311.482544 
	C1070.290039,1315.514893 1067.473511,1317.367310 1063.732666,1318.162354 
	C1055.797607,1319.849121 1048.598633,1317.776367 1041.064697,1313.599731 
M669.473328,1256.843872 
	C663.175110,1273.796387 656.876892,1290.748779 650.116394,1308.945557 
	C649.015015,1306.045288 648.431030,1304.537842 647.868774,1303.022217 
	C641.865112,1286.840088 635.890991,1270.646729 629.817993,1254.490601 
	C629.283752,1253.069458 628.165955,1250.821777 627.220825,1250.770386 
	C621.032410,1250.434204 614.816956,1250.597290 608.159302,1250.597290 
	C618.166748,1275.543579 627.796936,1299.571899 637.446228,1323.592529 
	C641.734619,1334.267822 641.756958,1334.070923 652.989746,1334.358276 
	C656.741455,1334.454346 658.495178,1333.363647 659.879822,1329.848633 
	C669.673401,1304.987915 679.698914,1280.218506 689.634216,1255.413452 
	C690.214661,1253.964111 690.654846,1252.458740 691.305359,1250.555054 
	C686.321411,1250.555054 681.973572,1250.908203 677.710205,1250.459595 
	C673.074341,1249.971680 670.406738,1251.409424 669.473328,1256.843872 
M923.882690,1271.577148 
	C920.302795,1265.584595 916.791382,1259.549072 913.087708,1253.634033 
	C912.304810,1252.383545 910.856934,1250.755127 909.649475,1250.698120 
	C903.394104,1250.402832 897.117432,1250.560791 890.191467,1250.560791 
	C891.381409,1252.612427 892.139343,1254.025635 892.994629,1255.377441 
	C901.440247,1268.725586 909.761597,1282.155762 918.444641,1295.347778 
	C921.049011,1299.304565 922.180420,1303.185059 922.023071,1307.876587 
	C921.735474,1316.449829 921.941284,1325.039795 921.941284,1333.507812 
	C928.413696,1333.507812 934.162048,1333.507812 940.138977,1333.507812 
	C940.138977,1323.537598 940.026794,1313.882080 940.224854,1304.232910 
	C940.269409,1302.061035 940.955017,1299.637085 942.097778,1297.796265 
	C949.113281,1286.496460 956.348999,1275.333618 963.502441,1264.119507 
	C966.234619,1259.836426 968.942688,1255.538086 972.100037,1250.555054 
	C966.177612,1250.555054 961.050049,1250.788574 955.956238,1250.473877 
	C952.491150,1250.259888 950.599365,1251.518311 948.887695,1254.471436 
	C943.268311,1264.166138 937.344788,1273.684448 931.195312,1283.836182 
	C928.623779,1279.576172 926.408813,1275.906860 923.882690,1271.577148 
M1268.140015,1296.500000 
	C1268.140015,1308.778442 1268.140015,1321.056763 1268.140015,1333.496826 
	C1274.497437,1333.496826 1280.359131,1333.496826 1286.829224,1333.496826 
	C1286.829224,1311.294800 1286.829224,1289.424805 1286.829224,1267.159180 
	C1295.534180,1267.159180 1303.632324,1267.159180 1311.685669,1267.159180 
	C1311.685669,1261.481445 1311.685669,1256.217773 1311.685669,1250.802856 
	C1288.692993,1250.802856 1265.948364,1250.802856 1243.104492,1250.802856 
	C1243.104492,1256.361938 1243.104492,1261.660156 1243.104492,1267.301025 
	C1251.375366,1267.301025 1259.494873,1267.301025 1268.140015,1267.301025 
	C1268.140015,1276.923340 1268.140015,1286.211670 1268.140015,1296.500000 
M1312.157715,750.300781 
	C1306.678955,748.174744 1301.334839,745.381531 1295.658203,744.237122 
	C1293.244385,743.750549 1289.129028,745.988586 1287.504517,748.232056 
	C1276.949097,762.810730 1277.320068,784.851685 1287.779541,799.354065 
	C1290.295776,802.842957 1293.394531,804.288330 1297.687866,803.184875 
	C1309.569702,800.130859 1318.709961,793.855591 1322.046143,781.467346 
	C1325.281982,769.451172 1321.830811,759.174622 1312.157715,750.300781 
M1221.099731,1250.566040 
	C1215.812256,1250.566040 1210.524780,1250.566040 1205.332764,1250.566040 
	C1205.332764,1278.558960 1205.332764,1306.069702 1205.332764,1333.539062 
	C1211.414062,1333.539062 1217.157227,1333.539062 1222.971436,1333.539062 
	C1223.078979,1332.621704 1223.220703,1331.975830 1223.220947,1331.329834 
	C1223.233154,1305.558350 1223.247803,1279.786987 1223.182495,1254.015625 
	C1223.179688,1252.881104 1222.431030,1251.748291 1221.099731,1250.566040 
M1283.248779,745.979248 
	C1270.297852,750.268127 1262.749268,762.206909 1263.891602,776.594727 
	C1264.817505,788.256897 1273.783936,799.063782 1284.512817,800.821228 
	C1273.794922,782.663330 1273.558228,764.584167 1283.248779,745.979248 
M1088.358398,703.612488 
	C1089.573364,703.525513 1090.788330,703.438538 1092.647339,703.305481 
	C1090.820801,700.382568 1089.369995,698.061096 1087.666260,695.334961 
	C1086.080566,698.259338 1084.803833,700.613831 1083.182495,703.603760 
	C1085.329834,703.603760 1086.477051,703.603760 1088.358398,703.612488 
M1103.499023,667.284180 
	C1102.110840,669.737427 1100.722534,672.190735 1099.208618,674.866089 
	C1102.509766,674.866089 1105.197266,674.866089 1108.238770,674.866089 
	C1106.677979,672.226685 1105.350952,669.982422 1103.499023,667.284180 
M1160.725830,701.012512 
	C1158.852051,701.292542 1156.978149,701.572510 1154.648560,701.920654 
	C1156.595093,704.577454 1158.110962,706.646362 1160.072876,709.324158 
	C1161.530884,706.243896 1162.712891,703.746582 1164.028564,700.966919 
	C1162.749878,700.966919 1162.097046,700.966919 1160.725830,701.012512 
M1093.654663,684.871826 
	C1092.992310,686.129944 1092.329834,687.388000 1091.499634,688.964783 
	C1094.625244,688.964783 1097.300537,688.964783 1100.545776,688.964783 
	C1098.807983,686.154724 1097.376709,683.840210 1095.748047,681.206360 
	C1094.958496,682.545959 1094.463501,683.385681 1093.654663,684.871826 
M1144.171509,730.803833 
	C1143.197266,730.917297 1142.223022,731.030762 1140.838867,731.191956 
	C1142.744629,733.771118 1144.426392,736.047180 1146.432251,738.761902 
	C1147.901001,735.515076 1148.992798,733.101929 1150.312134,730.185608 
	C1147.909180,730.434326 1146.429932,730.587463 1144.171509,730.803833 
M1149.092773,716.067322 
	C1150.157471,718.560425 1151.222168,721.053589 1152.801880,724.752930 
	C1154.626343,720.885742 1155.764771,718.472839 1157.110229,715.621094 
	C1154.338745,715.767029 1152.090332,715.885376 1149.092773,716.067322 
z"/>
<path fill="#5A5A5A" opacity="1.000000" stroke="none" 
	d="
M1.000000,2000.500000 
	C667.370911,2000.000000 1333.741821,2000.000000 2000.556396,2000.000000 
	C2000.833374,2000.333374 2000.684204,2000.943726 2000.497192,2000.955444 
	C1999.169067,2001.038818 1997.833374,2001.000000 1996.500000,2001.000000 
	C1331.333374,2001.000000 666.166687,2001.000000 1.000000,2000.500000 
z"/>
<path fill="#5A5A5A" opacity="1.000000" stroke="none" 
	d="
M2001.000000,1.500000 
	C1334.629028,1.999970 668.258118,1.999941 1.443604,1.999956 
	C1.166667,1.666667 1.315919,1.056198 1.502793,1.044456 
	C2.830883,0.961004 4.166667,1.000000 5.500000,1.000000 
	C670.666687,1.000000 1335.833374,1.000000 2001.000000,1.500000 
z"/>
<path fill="#FDFDFD" opacity="1.000000" stroke="none" 
	d="
M885.065063,1150.923462 
	C878.878601,1144.632690 873.072388,1138.454346 867.029663,1132.516602 
	C865.425354,1130.940186 863.203064,1129.344849 861.080811,1129.040771 
	C831.176208,1124.755127 801.492126,1119.420532 772.472351,1110.479370 
	C801.272949,1114.334961 830.073486,1118.190430 858.768250,1122.031860 
	C818.357910,1022.790833 778.194092,924.155334 737.838989,825.049927 
	C776.338623,811.547363 814.359802,798.212646 853.058167,784.640381 
	C879.121704,848.483643 905.113892,912.152344 931.106140,975.821045 
	C931.129944,958.103333 937.300293,944.103943 953.649292,935.812439 
	C969.258606,927.896179 984.957275,930.646362 1000.818542,936.091492 
	C1002.483032,932.601501 1003.960266,929.504089 1005.380554,926.526123 
	C999.466553,921.500427 993.458313,917.016541 988.183960,911.791748 
	C974.406616,898.143738 965.785217,882.102295 966.932495,862.012817 
	C967.703125,848.518433 973.341003,836.987671 981.783936,826.763000 
	C999.335999,805.506653 1022.261658,791.979553 1047.522339,782.110657 
	C1056.626709,778.553833 1066.194214,776.196777 1075.437378,772.969116 
	C1077.487549,772.253235 1079.716919,770.528076 1080.732056,768.654358 
	C1083.892456,762.821899 1086.525513,756.702454 1089.333374,750.680542 
	C1093.029541,742.753540 1094.055176,734.487854 1092.673950,725.844910 
	C1092.371094,723.950378 1092.452271,721.808105 1093.023071,719.989014 
	C1099.372070,699.753601 1110.060913,681.579041 1120.160889,662.161804 
	C1131.696777,667.942139 1142.800659,673.472107 1153.868408,679.073425 
	C1157.014648,680.665649 1157.950439,682.817444 1156.214355,686.381165 
	C1147.924072,703.399658 1139.983765,720.589478 1131.598755,737.560120 
	C1130.056763,740.680969 1127.393921,743.525940 1124.625854,745.708740 
	C1117.536255,751.299622 1113.357056,756.962036 1110.744629,766.180298 
	C1119.745972,765.354248 1128.605713,764.234375 1137.499268,763.794434 
	C1152.135620,763.070251 1166.834595,761.884094 1181.432251,762.544922 
	C1199.714111,763.372437 1217.666626,760.896484 1235.740234,759.500671 
	C1245.023315,758.783752 1254.286133,757.803284 1264.277344,756.875122 
	C1258.537720,768.337463 1259.004395,779.398865 1264.620850,790.818176 
	C1252.297729,790.053589 1240.715576,789.502319 1229.162109,788.587952 
	C1188.214600,785.346802 1147.338257,784.338379 1106.557739,790.898254 
	C1100.806030,791.823486 1097.440063,793.694946 1094.904419,799.430969 
	C1077.585205,838.610779 1059.773682,877.572876 1041.673218,917.594910 
	C1051.198242,919.778625 1060.316406,922.025879 1069.503540,923.943726 
	C1090.813599,928.392212 1112.375977,931.833130 1133.426758,937.267639 
	C1155.720459,943.022949 1175.129639,954.591003 1190.651611,971.983704 
	C1211.309326,995.131042 1212.680176,1021.968750 1194.391113,1047.137085 
	C1181.186279,1065.308838 1163.223511,1077.900757 1144.192749,1089.153076 
	C1109.070557,1109.919678 1070.942871,1121.913452 1030.796509,1128.106934 
	C1028.748901,1128.422729 1025.984985,1129.957275 1025.192505,1131.678467 
	C1009.905945,1164.879395 985.108643,1178.978638 948.494324,1174.778076 
	C925.510681,1172.141235 903.870728,1165.767212 885.065063,1150.923462 
M1180.388306,998.328491 
	C1177.264038,994.044678 1174.566162,989.354797 1170.940796,985.548279 
	C1156.202881,970.073792 1137.514648,961.523743 1117.036377,957.117554 
	C1088.819702,951.046326 1060.423584,945.808838 1031.609131,940.116333 
	C1028.824463,946.287781 1025.161499,953.220642 1022.570374,960.533264 
	C1020.600830,966.091370 1019.612305,972.085327 1018.887207,977.971558 
	C1018.150024,983.955994 1020.531006,989.085632 1025.319580,992.890442 
	C1034.808350,1000.429993 1044.628540,1006.765320 1058.216919,1000.231567 
	C1054.086060,1011.772583 1048.098511,1020.468933 1038.084717,1026.252808 
	C1024.245850,1034.245972 1018.910339,1047.229736 1023.687744,1062.329346 
	C1028.074951,1076.195312 1031.991089,1090.053589 1030.987183,1105.294922 
	C1038.687500,1103.437866 1045.918335,1101.645752 1053.172241,1099.952881 
	C1089.031738,1091.584351 1122.234619,1077.236450 1152.138306,1055.633911 
	C1162.442505,1048.190063 1171.794556,1039.674805 1178.347900,1028.525024 
	C1183.907959,1019.064941 1185.425781,1009.284851 1180.388306,998.328491 
M1005.283752,835.788208 
	C1002.440247,839.255066 999.358093,842.555664 996.801758,846.222778 
	C991.130249,854.358582 988.615540,863.398010 991.333435,873.153259 
	C995.120972,886.747925 1004.532593,896.050903 1015.921936,904.389587 
	C1032.584839,869.766663 1048.986694,835.686462 1065.914551,800.513062 
	C1042.766479,808.693726 1022.441956,818.819641 1005.283752,835.788208 
M816.810608,907.328430 
	C811.065125,909.704102 805.319641,912.079712 799.325745,914.558105 
	C803.307007,924.365173 807.085022,933.671387 810.941711,943.171509 
	C838.005798,932.177917 864.597778,921.376038 891.340393,910.513000 
	C887.944824,902.248047 884.812378,894.623474 881.637390,886.895325 
	C866.638855,892.997009 851.971680,898.963867 837.236633,904.958374 
	C836.303040,903.195740 835.544312,901.763367 834.708069,900.184631 
	C828.851196,902.529053 823.191956,904.794373 816.810608,907.328430 
M815.927063,953.843323 
	C819.444580,963.355896 822.962097,972.868408 826.583313,982.661438 
	C839.058472,977.592041 850.649597,972.881958 862.388672,968.111755 
	C861.588745,965.853882 860.999329,964.190125 860.319519,962.271423 
	C875.358032,956.197510 890.198853,950.203430 905.092468,944.188049 
	C901.815186,936.219421 898.794312,928.874268 895.651245,921.232117 
	C869.066833,931.995300 842.783569,942.636536 815.927063,953.843323 
M768.318359,838.065918 
	C771.884888,846.773804 775.451416,855.481628 779.113892,864.423767 
	C791.193787,859.519043 802.807434,854.803589 814.590210,850.019531 
	C813.840698,847.843994 813.268188,846.182373 812.570374,844.156799 
	C827.454163,838.078491 842.112793,832.092102 856.865723,826.067200 
	C853.795410,818.604004 850.977295,811.753662 848.030945,804.591858 
	C821.479248,814.847961 795.349854,824.928772 769.254761,835.097717 
	C768.656189,835.330994 768.445862,836.560669 768.318359,838.065918 
M865.397034,848.962341 
	C850.820679,854.810059 836.244385,860.657776 821.657288,866.509827 
	C820.546753,864.300903 819.679260,862.575562 818.763794,860.754639 
	C806.793640,865.623779 795.157288,870.357178 783.358826,875.156555 
	C787.384155,885.029663 791.187744,894.358948 795.036255,903.798462 
	C807.182556,898.864868 818.781311,894.153625 830.528259,889.382263 
	C829.583557,886.802795 828.853271,884.808777 828.033936,882.571533 
	C842.881470,876.490051 857.543884,870.484436 872.554138,864.336365 
	C870.265137,858.995850 868.182983,854.138123 865.397034,848.962341 
M862.804993,980.351562 
	C852.369141,984.606262 841.933289,988.860962 831.172119,993.248291 
	C835.113647,1002.948792 838.934814,1012.353027 842.819031,1021.912415 
	C854.593079,1016.697083 865.733276,1011.762573 876.818054,1006.852539 
	C875.769531,1004.096741 874.948608,1001.939026 874.032593,999.531555 
	C889.491028,993.287415 904.783203,987.110413 920.100281,980.923279 
	C918.012390,975.894470 916.181458,971.484497 914.217224,966.753540 
	C899.163269,972.781189 884.408020,978.689270 869.535522,984.644226 
	C868.501343,982.653076 867.534851,980.792236 866.576416,978.946960 
	C865.388489,979.383789 864.455933,979.726746 862.804993,980.351562 
M897.260193,1018.686096 
	C899.794006,1017.334473 902.327820,1015.982788 904.861633,1014.631104 
	C904.701111,1014.270935 904.540588,1013.910706 904.380066,1013.550537 
	C897.382812,1016.303284 890.385559,1019.056091 883.214539,1021.877197 
	C882.055542,1019.406433 880.946106,1017.041260 879.681702,1014.345703 
	C868.258606,1019.118286 857.062744,1023.795898 845.661682,1028.559204 
	C849.298157,1036.771362 852.695679,1044.444092 856.608765,1053.280884 
	C867.696106,1038.260620 881.010193,1027.251831 897.260193,1018.686096 
M1233.776855,775.507874 
	C1237.388428,776.147034 1241.000000,776.786194 1244.898193,777.476013 
	C1244.898193,774.595886 1244.898193,772.975220 1244.898193,771.148376 
	C1242.154541,771.148376 1239.457153,770.790771 1236.937256,771.304504 
	C1235.738892,771.548828 1234.878784,773.452881 1233.776855,775.507874 
z"/>
<path fill="#FDFDFD" opacity="1.000000" stroke="none" 
	d="
M865.292480,1312.657227 
	C870.055481,1319.629395 874.610535,1326.306885 879.734497,1333.818359 
	C872.557190,1333.818359 866.319031,1333.972046 860.100830,1333.688965 
	C858.851807,1333.632080 857.363098,1332.134033 856.522644,1330.926270 
	C851.966125,1324.377930 847.394775,1317.824951 843.215515,1311.035522 
	C841.326050,1307.965820 839.264771,1306.589966 835.648132,1306.998169 
	C832.705261,1307.330078 829.695068,1307.065552 826.152222,1307.065552 
	C826.152222,1315.980469 826.152222,1324.694946 826.152222,1333.606812 
	C819.848511,1333.606812 814.109009,1333.606812 808.123108,1333.606812 
	C808.123108,1305.980835 808.123108,1278.569946 808.123108,1251.445557 
	C823.880127,1251.445557 839.705139,1250.401001 855.317139,1251.775635 
	C867.825012,1252.876831 875.557678,1262.116333 876.932190,1273.274170 
	C878.656311,1287.270142 873.782043,1296.859375 861.834778,1302.980225 
	C861.256042,1303.276611 860.685364,1303.588989 859.617310,1304.155884 
	C861.505432,1306.990112 863.295044,1309.676392 865.292480,1312.657227 
M826.143982,1267.801270 
	C826.143982,1275.402710 826.143982,1283.004150 826.143982,1290.959473 
	C832.824341,1290.959473 839.114807,1291.077026 845.399109,1290.930176 
	C853.656799,1290.737305 858.614258,1286.269653 858.737732,1279.184692 
	C858.863159,1271.983154 854.196472,1267.457764 845.788208,1267.132080 
	C839.475830,1266.887573 833.145264,1267.112427 826.143982,1267.801270 
z"/>
<path fill="#FBFBFB" opacity="1.000000" stroke="none" 
	d="
M1373.999512,1266.900024 
	C1365.383789,1266.900024 1357.267822,1266.900024 1348.978760,1266.900024 
	C1348.978760,1272.645386 1348.978760,1277.915405 1348.978760,1283.604980 
	C1361.885864,1283.604980 1374.630371,1283.604980 1387.669189,1283.604980 
	C1387.669189,1289.088135 1387.669189,1294.168091 1387.669189,1299.806519 
	C1375.017822,1299.806519 1362.136353,1299.806519 1349.049805,1299.806519 
	C1349.049805,1305.917603 1349.049805,1311.472412 1349.049805,1317.478027 
	C1364.045898,1317.478027 1378.797363,1317.478027 1393.736328,1317.478027 
	C1393.736328,1323.029541 1393.736328,1328.129761 1393.736328,1333.530029 
	C1372.833740,1333.530029 1352.073975,1333.530029 1331.005615,1333.530029 
	C1331.005615,1306.179688 1331.005615,1278.750366 1331.005615,1250.935791 
	C1351.439087,1250.935791 1372.004395,1250.935791 1392.884521,1250.935791 
	C1392.884521,1255.960083 1392.884521,1261.214844 1392.884521,1266.900024 
	C1386.739258,1266.900024 1380.619263,1266.900024 1373.999512,1266.900024 
z"/>
<path fill="#F8F8F8" opacity="1.000000" stroke="none" 
	d="
M1126.644287,1291.979248 
	C1126.761597,1295.967773 1126.643799,1299.487671 1127.041138,1302.948364 
	C1128.169678,1312.774536 1134.901978,1318.255859 1145.289673,1318.059570 
	C1154.953247,1317.876953 1161.543823,1312.219604 1161.989380,1302.520874 
	C1162.554077,1290.223267 1162.314941,1277.888428 1162.400024,1265.569458 
	C1162.433228,1260.768188 1162.405273,1255.966431 1162.405273,1250.856201 
	C1168.663086,1250.856201 1174.561279,1250.856201 1179.972656,1250.856201 
	C1179.972656,1269.815063 1180.936157,1288.638794 1179.678833,1307.313232 
	C1178.603271,1323.287231 1166.110229,1333.572998 1149.157471,1334.779053 
	C1143.909058,1335.152466 1138.456543,1334.806030 1133.291992,1333.795410 
	C1119.987671,1331.191895 1109.924927,1321.050537 1109.228027,1307.374023 
	C1108.274170,1288.656006 1108.989624,1269.852661 1108.989624,1250.812500 
	C1114.296509,1250.812500 1120.069702,1250.812500 1126.644287,1250.812500 
	C1126.644287,1264.360962 1126.644287,1277.922241 1126.644287,1291.979248 
z"/>
<path fill="#FCFCFC" opacity="1.000000" stroke="none" 
	d="
M750.976318,1315.044556 
	C743.167053,1315.044556 735.852844,1315.044556 728.350098,1315.044556 
	C726.176025,1320.366943 723.942444,1325.520386 721.981934,1330.775757 
	C721.087463,1333.173584 719.776855,1334.001953 717.223694,1333.888428 
	C712.411865,1333.674194 707.583679,1333.826782 702.085327,1333.826782 
	C703.759216,1329.836060 705.259521,1326.220703 706.789551,1322.617920 
	C716.511902,1299.723267 726.323242,1276.865601 735.872437,1253.898926 
	C737.195129,1250.717651 738.748596,1249.637207 742.065979,1249.892578 
	C746.033447,1250.197876 750.042297,1249.964600 754.586060,1249.964600 
	C766.377625,1277.685669 778.210632,1305.504272 790.171143,1333.622559 
	C788.992554,1333.720459 788.367310,1333.824219 787.743530,1333.816040 
	C782.276001,1333.743652 775.633484,1335.514526 771.683105,1333.022949 
	C767.985962,1330.690918 766.924500,1323.914185 765.124695,1318.940918 
	C764.065430,1316.014038 762.708984,1314.607178 759.453308,1314.983032 
	C756.825256,1315.286377 754.134399,1315.044556 750.976318,1315.044556 
M743.098450,1278.616455 
	C740.411926,1285.283081 737.725403,1291.949829 735.002808,1298.705933 
	C742.419067,1298.705933 749.302124,1298.705933 756.831970,1298.705933 
	C753.184509,1289.821411 749.718201,1281.378052 745.924194,1272.136597 
	C744.802551,1274.695312 744.097717,1276.303101 743.098450,1278.616455 
z"/>
<path fill="#FBFBFB" opacity="1.000000" stroke="none" 
	d="
M1041.394287,1313.779541 
	C1048.598633,1317.776367 1055.797607,1319.849121 1063.732666,1318.162354 
	C1067.473511,1317.367310 1070.290039,1315.514893 1070.769043,1311.482544 
	C1071.266602,1307.294678 1068.657837,1304.945679 1065.098877,1303.720581 
	C1060.083984,1301.994263 1054.964600,1300.572266 1049.892944,1299.010376 
	C1047.671875,1298.326416 1045.428467,1297.700439 1043.246338,1296.907471 
	C1030.976318,1292.447998 1025.445190,1284.559326 1026.386108,1272.948608 
	C1027.359009,1260.940430 1035.512085,1252.070923 1047.776245,1250.067505 
	C1061.777466,1247.780151 1074.472778,1250.996948 1086.278076,1259.927002 
	C1083.146973,1264.462769 1080.088623,1268.893188 1077.076538,1273.256592 
	C1072.292603,1271.039429 1067.991211,1268.390015 1063.314697,1267.077515 
	C1059.281494,1265.945801 1054.694580,1265.617065 1050.599487,1266.337402 
	C1048.336182,1266.735718 1045.722534,1269.690796 1044.805176,1272.083008 
	C1043.552246,1275.350098 1045.608887,1278.335205 1048.913818,1279.598999 
	C1053.244995,1281.255127 1057.749390,1282.454712 1062.162842,1283.900513 
	C1066.417603,1285.294312 1070.773804,1286.468872 1074.869751,1288.238770 
	C1084.157715,1292.251831 1089.279297,1299.225708 1088.922485,1309.652100 
	C1088.564209,1320.118164 1083.840088,1327.934082 1074.073364,1331.905762 
	C1060.571533,1337.396484 1047.280640,1335.393188 1034.498291,1329.272583 
	C1030.514526,1327.364990 1026.955444,1324.570801 1022.889099,1321.983398 
	C1026.810913,1317.261353 1030.271606,1313.094238 1033.836792,1308.801636 
	C1036.417114,1310.514526 1038.740845,1312.057129 1041.394287,1313.779541 
z"/>
<path fill="#FCFCFC" opacity="1.000000" stroke="none" 
	d="
M669.639771,1256.492554 
	C670.406738,1251.409424 673.074341,1249.971680 677.710205,1250.459595 
	C681.973572,1250.908203 686.321411,1250.555054 691.305359,1250.555054 
	C690.654846,1252.458740 690.214661,1253.964111 689.634216,1255.413452 
	C679.698914,1280.218506 669.673401,1304.987915 659.879822,1329.848633 
	C658.495178,1333.363647 656.741455,1334.454346 652.989746,1334.358276 
	C641.756958,1334.070923 641.734619,1334.267822 637.446228,1323.592529 
	C627.796936,1299.571899 618.166748,1275.543579 608.159302,1250.597290 
	C614.816956,1250.597290 621.032410,1250.434204 627.220825,1250.770386 
	C628.165955,1250.821777 629.283752,1253.069458 629.817993,1254.490601 
	C635.890991,1270.646729 641.865112,1286.840088 647.868774,1303.022217 
	C648.431030,1304.537842 649.015015,1306.045288 650.116394,1308.945557 
	C656.876892,1290.748779 663.175110,1273.796387 669.639771,1256.492554 
z"/>
<path fill="#FCFCFC" opacity="1.000000" stroke="none" 
	d="
M924.038330,1271.907471 
	C926.408813,1275.906860 928.623779,1279.576172 931.195312,1283.836182 
	C937.344788,1273.684448 943.268311,1264.166138 948.887695,1254.471436 
	C950.599365,1251.518311 952.491150,1250.259888 955.956238,1250.473877 
	C961.050049,1250.788574 966.177612,1250.555054 972.100037,1250.555054 
	C968.942688,1255.538086 966.234619,1259.836426 963.502441,1264.119507 
	C956.348999,1275.333618 949.113281,1286.496460 942.097778,1297.796265 
	C940.955017,1299.637085 940.269409,1302.061035 940.224854,1304.232910 
	C940.026794,1313.882080 940.138977,1323.537598 940.138977,1333.507812 
	C934.162048,1333.507812 928.413696,1333.507812 921.941284,1333.507812 
	C921.941284,1325.039795 921.735474,1316.449829 922.023071,1307.876587 
	C922.180420,1303.185059 921.049011,1299.304565 918.444641,1295.347778 
	C909.761597,1282.155762 901.440247,1268.725586 892.994629,1255.377441 
	C892.139343,1254.025635 891.381409,1252.612427 890.191467,1250.560791 
	C897.117432,1250.560791 903.394104,1250.402832 909.649475,1250.698120 
	C910.856934,1250.755127 912.304810,1252.383545 913.087708,1253.634033 
	C916.791382,1259.549072 920.302795,1265.584595 924.038330,1271.907471 
z"/>
<path fill="#F8F8F8" opacity="1.000000" stroke="none" 
	d="
M1268.140015,1296.000000 
	C1268.140015,1286.211670 1268.140015,1276.923340 1268.140015,1267.301025 
	C1259.494873,1267.301025 1251.375366,1267.301025 1243.104492,1267.301025 
	C1243.104492,1261.660156 1243.104492,1256.361938 1243.104492,1250.802856 
	C1265.948364,1250.802856 1288.692993,1250.802856 1311.685669,1250.802856 
	C1311.685669,1256.217773 1311.685669,1261.481445 1311.685669,1267.159180 
	C1303.632324,1267.159180 1295.534180,1267.159180 1286.829224,1267.159180 
	C1286.829224,1289.424805 1286.829224,1311.294800 1286.829224,1333.496826 
	C1280.359131,1333.496826 1274.497437,1333.496826 1268.140015,1333.496826 
	C1268.140015,1321.056763 1268.140015,1308.778442 1268.140015,1296.000000 
z"/>
<path fill="#FDFDFD" opacity="1.000000" stroke="none" 
	d="
M1312.423096,750.541504 
	C1321.830811,759.174622 1325.281982,769.451172 1322.046143,781.467346 
	C1318.709961,793.855591 1309.569702,800.130859 1297.687866,803.184875 
	C1293.394531,804.288330 1290.295776,802.842957 1287.779541,799.354065 
	C1277.320068,784.851685 1276.949097,762.810730 1287.504517,748.232056 
	C1289.129028,745.988586 1293.244385,743.750549 1295.658203,744.237122 
	C1301.334839,745.381531 1306.678955,748.174744 1312.423096,750.541504 
z"/>
<path fill="#FDFDFD" opacity="1.000000" stroke="none" 
	d="
M1221.564697,1250.590332 
	C1222.431030,1251.748291 1223.179688,1252.881104 1223.182495,1254.015625 
	C1223.247803,1279.786987 1223.233154,1305.558350 1223.220947,1331.329834 
	C1223.220703,1331.975830 1223.078979,1332.621704 1222.971436,1333.539062 
	C1217.157227,1333.539062 1211.414062,1333.539062 1205.332764,1333.539062 
	C1205.332764,1306.069702 1205.332764,1278.558960 1205.332764,1250.566040 
	C1210.524780,1250.566040 1215.812256,1250.566040 1221.564697,1250.590332 
z"/>
<path fill="#F8F8F8" opacity="1.000000" stroke="none" 
	d="
M1283.524902,746.231567 
	C1273.558228,764.584167 1273.794922,782.663330 1284.512817,800.821228 
	C1273.783936,799.063782 1264.817505,788.256897 1263.891602,776.594727 
	C1262.749268,762.206909 1270.297852,750.268127 1283.524902,746.231567 
z"/>
<path fill="#F8F8F8" opacity="1.000000" stroke="none" 
	d="
M1087.991333,703.608154 
	C1086.477051,703.603760 1085.329834,703.603760 1083.182495,703.603760 
	C1084.803833,700.613831 1086.080566,698.259338 1087.666260,695.334961 
	C1089.369995,698.061096 1090.820801,700.382568 1092.647339,703.305481 
	C1090.788330,703.438538 1089.573364,703.525513 1087.991333,703.608154 
z"/>
<path fill="#F8F8F8" opacity="1.000000" stroke="none" 
	d="
M1103.761475,667.511108 
	C1105.350952,669.982422 1106.677979,672.226685 1108.238770,674.866089 
	C1105.197266,674.866089 1102.509766,674.866089 1099.208618,674.866089 
	C1100.722534,672.190735 1102.110840,669.737427 1103.761475,667.511108 
z"/>
<path fill="#F8F8F8" opacity="1.000000" stroke="none" 
	d="
M1161.084961,700.989746 
	C1162.097046,700.966919 1162.749878,700.966919 1164.028564,700.966919 
	C1162.712891,703.746582 1161.530884,706.243896 1160.072876,709.324158 
	C1158.110962,706.646362 1156.595093,704.577454 1154.648560,701.920654 
	C1156.978149,701.572510 1158.852051,701.292542 1161.084961,700.989746 
z"/>
<path fill="#F8F8F8" opacity="1.000000" stroke="none" 
	d="
M1093.811646,684.548584 
	C1094.463501,683.385681 1094.958496,682.545959 1095.748047,681.206360 
	C1097.376709,683.840210 1098.807983,686.154724 1100.545776,688.964783 
	C1097.300537,688.964783 1094.625244,688.964783 1091.499634,688.964783 
	C1092.329834,687.388000 1092.992310,686.129944 1093.811646,684.548584 
z"/>
<path fill="#F8F8F8" opacity="1.000000" stroke="none" 
	d="
M1144.561157,730.772217 
	C1146.429932,730.587463 1147.909180,730.434326 1150.312134,730.185608 
	C1148.992798,733.101929 1147.901001,735.515076 1146.432251,738.761902 
	C1144.426392,736.047180 1142.744629,733.771118 1140.838867,731.191956 
	C1142.223022,731.030762 1143.197266,730.917297 1144.561157,730.772217 
z"/>
<path fill="#F8F8F8" opacity="1.000000" stroke="none" 
	d="
M1149.467285,716.035522 
	C1152.090332,715.885376 1154.338745,715.767029 1157.110229,715.621094 
	C1155.764771,718.472839 1154.626343,720.885742 1152.801880,724.752930 
	C1151.222168,721.053589 1150.157471,718.560425 1149.467285,716.035522 
z"/>
<path fill="#010101" opacity="1.000000" stroke="none" 
	d="
M1180.587158,998.658997 
	C1185.425781,1009.284851 1183.907959,1019.064941 1178.347900,1028.525024 
	C1171.794556,1039.674805 1162.442505,1048.190063 1152.138306,1055.633911 
	C1122.234619,1077.236450 1089.031738,1091.584351 1053.172241,1099.952881 
	C1045.918335,1101.645752 1038.687500,1103.437866 1030.987183,1105.294922 
	C1031.991089,1090.053589 1028.074951,1076.195312 1023.687744,1062.329346 
	C1018.910339,1047.229736 1024.245850,1034.245972 1038.084717,1026.252808 
	C1048.098511,1020.468933 1054.086060,1011.772583 1058.216919,1000.231567 
	C1044.628540,1006.765320 1034.808350,1000.429993 1025.319580,992.890442 
	C1020.531006,989.085632 1018.150024,983.955994 1018.887207,977.971558 
	C1019.612305,972.085327 1020.600830,966.091370 1022.570374,960.533264 
	C1025.161499,953.220642 1028.824463,946.287781 1031.609131,940.116333 
	C1060.423584,945.808838 1088.819702,951.046326 1117.036377,957.117554 
	C1137.514648,961.523743 1156.202881,970.073792 1170.940796,985.548279 
	C1174.566162,989.354797 1177.264038,994.044678 1180.587158,998.658997 
z"/>
<path fill="#030303" opacity="1.000000" stroke="none" 
	d="
M1005.532654,835.535522 
	C1022.441956,818.819641 1042.766479,808.693726 1065.914551,800.513062 
	C1048.986694,835.686462 1032.584839,869.766663 1015.921936,904.389587 
	C1004.532593,896.050903 995.120972,886.747925 991.333435,873.153259 
	C988.615540,863.398010 991.130249,854.358582 996.801758,846.222778 
	C999.358093,842.555664 1002.440247,839.255066 1005.532654,835.535522 
z"/>
<path fill="#030303" opacity="1.000000" stroke="none" 
	d="
M817.171631,907.194092 
	C823.191956,904.794373 828.851196,902.529053 834.708069,900.184631 
	C835.544312,901.763367 836.303040,903.195740 837.236633,904.958374 
	C851.971680,898.963867 866.638855,892.997009 881.637390,886.895325 
	C884.812378,894.623474 887.944824,902.248047 891.340393,910.513000 
	C864.597778,921.376038 838.005798,932.177917 810.941711,943.171509 
	C807.085022,933.671387 803.307007,924.365173 799.325745,914.558105 
	C805.319641,912.079712 811.065125,909.704102 817.171631,907.194092 
z"/>
<path fill="#030303" opacity="1.000000" stroke="none" 
	d="
M816.213745,953.560547 
	C842.783569,942.636536 869.066833,931.995300 895.651245,921.232117 
	C898.794312,928.874268 901.815186,936.219421 905.092468,944.188049 
	C890.198853,950.203430 875.358032,956.197510 860.319519,962.271423 
	C860.999329,964.190125 861.588745,965.853882 862.388672,968.111755 
	C850.649597,972.881958 839.058472,977.592041 826.583313,982.661438 
	C822.962097,972.868408 819.444580,963.355896 816.213745,953.560547 
z"/>
<path fill="#030303" opacity="1.000000" stroke="none" 
	d="
M768.186401,837.695801 
	C768.445862,836.560669 768.656189,835.330994 769.254761,835.097717 
	C795.349854,824.928772 821.479248,814.847961 848.030945,804.591858 
	C850.977295,811.753662 853.795410,818.604004 856.865723,826.067200 
	C842.112793,832.092102 827.454163,838.078491 812.570374,844.156799 
	C813.268188,846.182373 813.840698,847.843994 814.590210,850.019531 
	C802.807434,854.803589 791.193787,859.519043 779.113892,864.423767 
	C775.451416,855.481628 771.884888,846.773804 768.186401,837.695801 
z"/>
<path fill="#040404" opacity="1.000000" stroke="none" 
	d="
M865.748962,849.121338 
	C868.182983,854.138123 870.265137,858.995850 872.554138,864.336365 
	C857.543884,870.484436 842.881470,876.490051 828.033936,882.571533 
	C828.853271,884.808777 829.583557,886.802795 830.528259,889.382263 
	C818.781311,894.153625 807.182556,898.864868 795.036255,903.798462 
	C791.187744,894.358948 787.384155,885.029663 783.358826,875.156555 
	C795.157288,870.357178 806.793640,865.623779 818.763794,860.754639 
	C819.679260,862.575562 820.546753,864.300903 821.657288,866.509827 
	C836.244385,860.657776 850.820679,854.810059 865.748962,849.121338 
z"/>
<path fill="#040404" opacity="1.000000" stroke="none" 
	d="
M863.164185,980.210571 
	C864.455933,979.726746 865.388489,979.383789 866.576416,978.946960 
	C867.534851,980.792236 868.501343,982.653076 869.535522,984.644226 
	C884.408020,978.689270 899.163269,972.781189 914.217224,966.753540 
	C916.181458,971.484497 918.012390,975.894470 920.100281,980.923279 
	C904.783203,987.110413 889.491028,993.287415 874.032593,999.531555 
	C874.948608,1001.939026 875.769531,1004.096741 876.818054,1006.852539 
	C865.733276,1011.762573 854.593079,1016.697083 842.819031,1021.912415 
	C838.934814,1012.353027 835.113647,1002.948792 831.172119,993.248291 
	C841.933289,988.860962 852.369141,984.606262 863.164185,980.210571 
z"/>
<path fill="#040404" opacity="1.000000" stroke="none" 
	d="
M896.923584,1018.840820 
	C881.010193,1027.251831 867.696106,1038.260620 856.608765,1053.280884 
	C852.695679,1044.444092 849.298157,1036.771362 845.661682,1028.559204 
	C857.062744,1023.795898 868.258606,1019.118286 879.681702,1014.345703 
	C880.946106,1017.041260 882.055542,1019.406433 883.214539,1021.877197 
	C890.385559,1019.056091 897.382812,1016.303284 904.380066,1013.550537 
	C904.540588,1013.910706 904.701111,1014.270935 904.861633,1014.631104 
	C902.327820,1015.982788 899.794006,1017.334473 896.923584,1018.840820 
z"/>
<path fill="#040404" opacity="1.000000" stroke="none" 
	d="
M1233.821167,775.056519 
	C1234.878784,773.452881 1235.738892,771.548828 1236.937256,771.304504 
	C1239.457153,770.790771 1242.154541,771.148376 1244.898193,771.148376 
	C1244.898193,772.975220 1244.898193,774.595886 1244.898193,777.476013 
	C1241.000000,776.786194 1237.388428,776.147034 1233.821167,775.056519 
z"/>
<path fill="#040404" opacity="1.000000" stroke="none" 
	d="
M826.483398,1267.464844 
	C833.145264,1267.112427 839.475830,1266.887573 845.788208,1267.132080 
	C854.196472,1267.457764 858.863159,1271.983154 858.737732,1279.184692 
	C858.614258,1286.269653 853.656799,1290.737305 845.399109,1290.930176 
	C839.114807,1291.077026 832.824341,1290.959473 826.143982,1290.959473 
	C826.143982,1283.004150 826.143982,1275.402710 826.483398,1267.464844 
z"/>
<path fill="#040404" opacity="1.000000" stroke="none" 
	d="
M743.245667,1278.263672 
	C744.097717,1276.303101 744.802551,1274.695312 745.924194,1272.136597 
	C749.718201,1281.378052 753.184509,1289.821411 756.831970,1298.705933 
	C749.302124,1298.705933 742.419067,1298.705933 735.002808,1298.705933 
	C737.725403,1291.949829 740.411926,1285.283081 743.245667,1278.263672 
z"/>
</svg>