<?xml version="1.0" encoding="UTF-8"?>
<svg id="Layer_2" data-name="Layer 2" xmlns="http://www.w3.org/2000/svg" viewBox="0 0 785.73 672.33">
  <defs>
    <style>
      .cls-1 {
        fill: #fff;
      }
    </style>
  </defs>
  <g id="Layer_1-2" data-name="Layer 1">
    <g>
      <g>
        <g>
          <g>
            <g>
              <path class="cls-1" d="M0,587.83h20.2l21.75,58.59,21.75-58.59h19.73l-33.64,83.79h-16.16L0,587.83Z"/>
              <path class="cls-1" d="M129.55,587.24h16.88l35.66,83.79h-19.14l-7.61-18.66h-35.18l-7.61,18.66h-18.66l35.66-83.79ZM148.8,636.2l-11.05-26.98-11.05,26.98h22.11Z"/>
              <path class="cls-1" d="M199.67,587.83h38.03c10.54,0,18.62,2.81,24.25,8.44,4.75,4.75,7.13,11.09,7.13,19.02v.24c0,6.74-1.65,12.22-4.93,16.46-3.29,4.24-7.59,7.35-12.9,9.33l20.32,29.71h-21.39l-17.83-26.62h-14.38v26.62h-18.3v-83.2ZM236.52,628.24c4.52,0,7.98-1.07,10.4-3.21,2.42-2.14,3.62-4.99,3.62-8.56v-.24c0-3.96-1.27-6.93-3.8-8.91-2.54-1.98-6.06-2.97-10.58-2.97h-18.18v23.89h18.54Z"/>
              <path class="cls-1" d="M313.77,638.22l-31.97-50.39h21.39l19.85,33.4,20.2-33.4h20.8l-31.97,50.04v33.16h-18.3v-32.8Z"/>
              <path class="cls-1" d="M450.33,672.22c-6.34,0-12.56-1.09-18.66-3.27-6.1-2.18-11.65-5.53-16.64-10.04l10.82-12.96c3.8,3.09,7.7,5.55,11.71,7.37,4,1.82,8.38,2.73,13.13,2.73,3.8,0,6.75-.69,8.85-2.08,2.1-1.38,3.15-3.31,3.15-5.76v-.24c0-1.19-.22-2.24-.66-3.15-.44-.91-1.27-1.76-2.5-2.55-1.23-.79-2.94-1.59-5.12-2.38-2.19-.79-5.03-1.62-8.52-2.5-4.21-1.03-8.02-2.18-11.44-3.45-3.42-1.27-6.32-2.83-8.7-4.69-2.39-1.86-4.23-4.18-5.54-6.95-1.31-2.77-1.97-6.22-1.97-10.34v-.24c0-3.8.71-7.23,2.12-10.28,1.42-3.05,3.4-5.69,5.96-7.9,2.56-2.22,5.61-3.92,9.17-5.11,3.55-1.19,7.47-1.78,11.75-1.78,6.1,0,11.71.91,16.82,2.73,5.11,1.82,9.81,4.44,14.08,7.84l-9.51,13.79c-3.72-2.53-7.37-4.53-10.93-6-3.57-1.47-7.13-2.2-10.7-2.2s-6.24.69-8.02,2.08c-1.78,1.39-2.67,3.11-2.67,5.17v.24c0,1.35.26,2.52.77,3.51.52.99,1.45,1.88,2.8,2.67,1.35.79,3.2,1.54,5.54,2.26,2.34.71,5.3,1.54,8.88,2.5,4.21,1.11,7.96,2.36,11.26,3.74,3.3,1.39,6.08,3.05,8.34,4.99,2.26,1.94,3.97,4.22,5.12,6.83,1.15,2.62,1.73,5.75,1.73,9.39v.24c0,4.12-.75,7.79-2.24,10.99-1.5,3.21-3.58,5.9-6.26,8.08-2.68,2.18-5.87,3.85-9.58,4.99s-7.83,1.72-12.34,1.72Z"/>
              <path class="cls-1" d="M536.14,672.33c-11.17,0-19.97-3.09-26.39-9.27-6.42-6.18-9.63-15.41-9.63-27.69v-47.54h18.3v47.07c0,6.82,1.58,11.94,4.75,15.39,3.17,3.45,7.57,5.17,13.19,5.17s10.02-1.66,13.19-4.99c3.17-3.33,4.76-8.32,4.76-14.98v-47.66h18.3v46.95c0,6.34-.85,11.85-2.56,16.52-1.7,4.67-4.14,8.58-7.31,11.71-3.17,3.13-7.01,5.47-11.53,7.01-4.52,1.55-9.55,2.32-15.09,2.32Z"/>
              <path class="cls-1" d="M596.88,587.83h18.3v83.2h-18.3v-83.2Z"/>
              <path class="cls-1" d="M660.11,604.71h-25.32v-16.88h68.93v16.88h-25.32v66.32h-18.3v-66.32Z"/>
              <path class="cls-1" d="M722.5,587.83h62.64v16.28h-44.57v16.88h39.22v16.28h-39.22v17.47h45.16v16.28h-63.23v-83.2Z"/>
            </g>
            <g>
              <g>
                <g>
                  <path class="cls-1" d="M713.77,102.11c-3.8-12.4-15.07-21.08-27.9-21.02-1.96,0-4.64,1.33-5.74,2.92-9.95,14.27-11.14,29.57-4.26,45.42,6,13.82,9.45,13.95,24.87,6.75.7-.33,1.29-.91,1.94-1.37,10.54-7.53,14.88-20.36,11.1-32.7Z"/>
                  <path class="cls-1" d="M676.33,82.65c-12.87,3.73-21.39,16.13-20.77,29.51.59,12.77,9.76,24.41,21.21,26.58-11.22-18.47-11.72-36.98-.43-56.09Z"/>
                  <path class="cls-1" d="M553.76,104.43c-.94,3.87-1.84,7.76-2.71,11.65,4.27.5,8.55,1.06,12.82,1.72.68,3.47,2.65,4.54,7.56,4.85,8.04.52,16.1,1.04,24.15,1.56,2.83.18,5.65.36,8.48.55,12.11.79,24.21,1.56,36.69,2.37,5.19.34,10.45.68,15.79,1.02-5.87-11.61-6.11-22.55-.41-33.98-29.62,2.74-58.47,5.39-87.32,8.09-2.52.24-4.11,1.44-4.84,3.37-3.4-.47-6.8-.84-10.21-1.2ZM626.19,108.65l10.92-.54-.55,6.19-11.24-.33.87-5.32Z"/>
                </g>
                <path class="cls-1" d="M337.54,471.81c-44.25,0-90.79-4.9-138.44-14.71-13.88-2.86-27.8-6.17-41.36-9.85l.21-.29c13.1,3.55,27.12,2.07,40.53,4.83,94.12,19.37,188.75,1.14,263.47-19.01,34.29-9.25,104.94-42.7,112.83-78.12,2.83-12.67-3.12-25.02-18.17-37.75-22.81-19.3-51.19-24.09-81.23-29.17-16.36-2.76-33.27-5.62-49.65-10.97-24.16-7.89-55.6-27.79-64.72-57.9-3.88-12.8-4.99-32.52,11.74-53.77,20.94-26.59,60.03-47.89,104.56-56.97,36.15-7.37,74.67-9.99,114.48-7.8l-1.3,23.58c-37.8-2.08-74.3.39-108.47,7.36-30.28,6.17-70.01,22.14-90.72,48.44-8.5,10.79-11.01,21.36-7.7,32.32,5.17,17.08,25.51,34.48,49.45,42.3,14.71,4.81,30.03,7.39,46.25,10.13,31.85,5.38,64.79,10.95,92.55,34.42,27.5,23.26,29.3,45.97,25.96,60.92-4.92,22.06-23.82,43.36-56.16,63.31-26.88,16.58-56.43,27.85-73.57,32.48-40.09,10.81-84.06,16.22-130.55,16.22Z"/>
              </g>
              <g>
                <g>
                  <path class="cls-1" d="M556.08,37.92c-4.03.49-6.82.83-9.62,1.16,1.58,2.2,3.15,4.39,5.46,7.61,1.63-3.42,2.54-5.36,4.16-8.77Z"/>
                  <path class="cls-1" d="M545.02,61.33c1.72-3.61,2.58-5.43,4.09-8.62-3.85.32-6.67.55-9.49.79,1.58,2.29,3.16,4.59,5.39,7.83Z"/>
                  <path class="cls-1" d="M542.27,67.55c-4.1.32-6.9.53-9.69.75,1.71,2.33,3.41,4.66,5.66,7.73,1.52-3.21,2.34-4.93,4.03-8.48Z"/>
                </g>
                <g>
                  <path class="cls-1" d="M495.51,4.04c1.96,3.55,3.32,6.02,4.69,8.48-2.7,0-5.4.01-9.36.03,1.82-3.32,2.86-5.2,4.68-8.51Z"/>
                  <path class="cls-1" d="M483.01,26.7c1.93-3.51,2.89-5.27,4.59-8.36,1.99,3.31,3.45,5.73,4.91,8.15-2.78.06-5.57.12-9.51.21Z"/>
                  <path class="cls-1" d="M479.57,32.58c2.14,3.51,3.6,5.9,5.06,8.3-2.89-.02-5.78-.04-9.58-.07,1.71-3.11,2.63-4.78,4.52-8.23Z"/>
                </g>
              </g>
            </g>
          </g>
          <polygon class="cls-1" points="265.8 336.82 274.9 359.31 329.4 337.42 320.39 314.89 265.8 336.82"/>
        </g>
        <path class="cls-1" d="M549.24,19.64c-.77-2.18-7.38-5.85-14.02-9.05l.12-.23-23.53-10.35s-29.75,53.55-27.53,62.35c3.47,13.76-3.62,26.84-3.62,26.84l.02.02-50.67,106.72c-3.46,7-6.93,14.02-10.39,21.01-9.23,18.71-17.95,37.66-26.78,56.25-7.15-1.82-12.42-3.56-17.81-4.45-7.04-1.15-14.47-.73-21.42,1.21-16.2,4.53-29.78,17.4-29.74,38.46.02,4.29.53,8.65,1.21,12.94,1.15,7.34-.55,13.92-6.21,18.58-4.53,3.74-9.79,6.98-15.24,9.21-14.84,6.09-28.5,13.95-40.37,24.72-5.09,4.62-9.33,9.47-12.73,14.52l-2.61,1.09-10.4-23.65,50.64-21.12-3.88-7.38-49.65,21.87-11.61-28.7,35.68-14.44,2.43,6.01,54.5-21.89-9.01-22.53-54.59,21.92,2.35,5.82-35.68,14.44-11.61-28.7,90.19-36.61-4.27-10.68-90.23,36.62-11.61-28.7,35.68-14.44,2.04,5.04,54.43-22.2-9.01-22.53-54.52,22.24,2.75,6.79-35.68,14.44-11.61-28.7,35.68-14.44,2.43,6.01,54.43-22.09-9.01-22.53-54.52,22.13,2.35,5.82-35.68,14.44-11.61-28.7,91.81-35.5-6.35-15.53-114.84,40.27s111.72,276.96,118.82,290.95c5.22,10.3,11.56,19.17,18.94,26.7,9.8,10.01,21.44,17.64,34.75,23.03,5.85,2.36,12.01,4.27,18.46,5.8,4.61,1.08,9.32,1.95,14.07,2.61,7.01.98,14.1,1.47,21.07,1.36,32.09-.54,57.79-23.49,65.24-57.74,3.9-17.9,1.21-35.65-4.99-52.73-5.86-16.12-.11-31.54,13.05-38.35,9.64-4.97,15.95-13.71,19.9-23.71.32-.82.56-1.76.68-2.74-.77.37-1.61.57-2.32.99-12.64,7.53-31.54-7.75-34.4-12.56-1.94-3.26-2.93-7.29-2.56-11.85.45-5.57,1.48-11.42,3.77-16.46,13.46-29.97,26.94-59.9,40.46-89.85,16.83-37.22,33.7-74.42,50.56-111.63,2.21-4.89,5.58-8.77,9.72-11.98,1.15-.9,2.36-1.75,3.62-2.55,1.71-1.03,2.91-2.9,3.83-4.69,8.35-16.13,15.25-32.99,23.39-49.26.7-1.41,3.8-6.49,3.28-7.96Z"/>
      </g>
      <rect class="cls-1" x="279.79" y="118.16" width="12.14" height="240.35" transform="translate(-68.9 125.78) rotate(-22.22)"/>
    </g>
  </g>
</svg>